<svg width="20" height="22" viewBox="0 0 20 22" fill="none" xmlns="http://www.w3.org/2000/svg">
<path fill-rule="evenodd" clip-rule="evenodd" d="M9.99984 0.486328C9.3424 0.486328 8.77045 0.907907 7.62654 1.75107L5.90637 3.01897C5.72617 3.1518 5.63606 3.21821 5.53933 3.27406C5.44259 3.32991 5.34003 3.37474 5.1349 3.46439L5.13489 3.46439L3.17677 4.32014C1.87462 4.88922 1.22354 5.17375 0.894821 5.74311C0.566102 6.31247 0.645223 7.01859 0.803465 8.43082L1.04142 10.5545C1.06635 10.777 1.07882 10.8882 1.07882 10.9999C1.07882 11.1116 1.06635 11.2228 1.04142 11.4453L0.803465 13.569C0.645223 14.9812 0.566102 15.6873 0.894821 16.2567C1.22354 16.826 1.87462 17.1106 3.17677 17.6797L5.13489 18.5354L5.13493 18.5354C5.34004 18.6251 5.4426 18.6699 5.53933 18.7257C5.63606 18.7816 5.72617 18.848 5.90637 18.9808L7.62654 20.2487C8.77045 21.0919 9.3424 21.5135 9.99984 21.5135C10.6573 21.5135 11.2292 21.0919 12.3731 20.2487L14.0933 18.9808L14.0933 18.9808C14.2735 18.848 14.3636 18.7816 14.4604 18.7257C14.5571 18.6699 14.6597 18.6251 14.8648 18.5354L16.8229 17.6797C18.1251 17.1106 18.7761 16.826 19.1049 16.2567C19.4336 15.6873 19.3545 14.9812 19.1962 13.569L18.9583 11.4453C18.9333 11.2228 18.9209 11.1116 18.9209 10.9999C18.9209 10.8882 18.9333 10.777 18.9583 10.5545L19.1962 8.43082C19.3545 7.01859 19.4336 6.31247 19.1049 5.74311C18.7761 5.17375 18.1251 4.88922 16.8229 4.32014L14.8648 3.46439L14.8648 3.46438C14.6596 3.37474 14.5571 3.32991 14.4604 3.27406C14.3636 3.21821 14.2735 3.1518 14.0933 3.01897L12.3731 1.75107C11.2292 0.907907 10.6573 0.486328 9.99984 0.486328ZM9.99984 14.9992C12.2086 14.9992 13.9992 13.2087 13.9992 10.9999C13.9992 8.79113 12.2086 7.00057 9.99984 7.00057C7.79107 7.00057 6.00051 8.79113 6.00051 10.9999C6.00051 13.2087 7.79107 14.9992 9.99984 14.9992Z" fill="#387EE5"/>
</svg>
