<svg width="34" height="30" viewBox="0 0 34 30" fill="none" xmlns="http://www.w3.org/2000/svg">
<path d="M6.37598 11.8955H13.6198C15.4481 11.8955 16.8691 12.3605 17.8859 13.2906C18.9011 14.2207 19.4095 15.4953 19.4095 17.1117C19.4095 17.7558 19.2254 18.3818 18.8574 18.9898C18.4893 19.5978 18.0247 20.0102 17.4665 20.2239C18.257 20.4963 18.9087 20.9929 19.42 21.7153C19.9314 22.4377 20.1879 23.2293 20.1879 24.0871C20.1879 25.1601 19.9525 26.0977 19.4819 26.8999C19.0112 27.7005 18.3264 28.316 17.4258 28.7464C16.5252 29.1754 15.4617 29.3906 14.2338 29.3906H6.37749V11.8955H6.37598ZM13.4554 18.9793C14.1644 18.9793 14.7135 18.8183 15.1027 18.4962C15.4919 18.1742 15.6865 17.7121 15.6865 17.1117C15.6865 16.5112 15.4919 16.0281 15.1027 15.706C14.7135 15.384 14.1644 15.223 13.4554 15.223H10.1005V18.9793H13.4554ZM14.0694 26.0631C14.8191 26.0631 15.4059 25.8915 15.8298 25.5484C16.2522 25.2053 16.4633 24.7192 16.4633 24.0886C16.4633 23.458 16.2522 22.9719 15.8298 22.6288C15.4074 22.2857 14.8206 22.1141 14.0694 22.1141H10.1005V26.0646H14.0694V26.0631Z" fill="#387EE5"/>
<path d="M26.6334 7.29102V25.7069H22.9502V7.29102H26.6334Z" fill="#387EE5"/>
<path d="M23.7268 0.903627L11.2319 5.75758C10.307 6.11691 9.8483 7.15772 10.2075 8.08229C10.5666 9.00687 11.6077 9.46509 12.5326 9.10576L25.0275 4.25181C25.9524 3.89248 26.4111 2.85167 26.0519 1.92709C25.6927 1.00252 24.6517 0.544298 23.7268 0.903627Z" fill="#DBDBDB"/>
<path d="M12.1398 5.66324L3.04032 2.0237C2.11897 1.65518 1.07346 2.10303 0.705103 3.02398C0.336747 3.94494 0.785038 4.99026 1.70638 5.35877L10.8059 8.99832C11.7272 9.36683 12.7728 8.91899 13.1411 7.99803C13.5095 7.07708 13.0612 6.03176 12.1398 5.66324Z" fill="url(#paint0_linear_758_3732)"/>
<path d="M23.4308 4.04179L30.1533 11.1731C30.834 11.8951 31.9708 11.9289 32.6926 11.2485C33.4143 10.5681 33.4477 9.43126 32.767 8.7092L26.0444 1.57791C25.3638 0.855849 24.2269 0.822061 23.5051 1.50244C22.7834 2.18283 22.7501 3.31973 23.4308 4.04179Z" fill="url(#paint1_linear_758_3732)"/>
<path d="M24.4966 4.36142C25.4915 4.36142 26.298 3.55495 26.298 2.56011C26.298 1.56527 25.4915 0.758789 24.4966 0.758789C23.5018 0.758789 22.6953 1.56527 22.6953 2.56011C22.6953 3.55495 23.5018 4.36142 24.4966 4.36142Z" fill="#387EE5"/>
<path d="M11.8482 9.28428C12.843 9.28428 13.6495 8.4778 13.6495 7.48296C13.6495 6.48812 12.843 5.68164 11.8482 5.68164C10.8534 5.68164 10.0469 6.48812 10.0469 7.48296C10.0469 8.4778 10.8534 9.28428 11.8482 9.28428Z" fill="#387EE5"/>
<defs>
<linearGradient id="paint0_linear_758_3732" x1="0.576072" y1="5.50363" x2="13.2708" y2="5.50363" gradientUnits="userSpaceOnUse">
<stop stop-color="white" stop-opacity="0"/>
<stop offset="0.15" stop-color="#FDFDFD" stop-opacity="0"/>
<stop offset="1" stop-color="#DBDBDB"/>
</linearGradient>
<linearGradient id="paint1_linear_758_3732" x1="33.8415" y1="9.06084" x2="22.3259" y2="3.71792" gradientUnits="userSpaceOnUse">
<stop stop-color="white" stop-opacity="0"/>
<stop offset="1" stop-color="#DBDBDB"/>
</linearGradient>
</defs>
</svg>
