<svg width="62" height="19" viewBox="0 0 62 19" fill="none" xmlns="http://www.w3.org/2000/svg">
<path d="M4.22546 17.2369C2.90653 16.4629 1.87306 15.3974 1.12353 14.0388C0.374 12.6801 0 11.1505 0 9.44998C0 7.74942 0.374 6.21982 1.12353 4.8612C1.87154 3.50258 2.90653 2.43553 4.22546 1.6631C5.54439 0.889145 7.02514 0.50293 8.66922 0.50293C10.1133 0.50293 11.4094 0.782287 12.5558 1.33947C13.7022 1.89666 14.6334 2.66451 15.3494 3.63997C16.0653 4.61543 16.5355 5.70996 16.7614 6.92203H13.1038C12.9054 6.08549 12.4108 5.38939 11.6231 4.83067C10.8339 4.27348 9.87672 3.99413 8.75013 3.99413C7.7823 3.99413 6.9076 4.22769 6.12601 4.69481C5.34442 5.16193 4.73074 5.81071 4.28652 6.63962C3.8423 7.46853 3.62095 8.40583 3.62095 9.45151C3.62095 10.4972 3.8423 11.4162 4.28652 12.2527C4.73074 13.0893 5.34289 13.7411 6.12601 14.2082C6.9076 14.6753 7.7823 14.9089 8.75013 14.9089C9.49203 14.9089 10.1912 14.7562 10.8476 14.4494C11.504 14.1426 12.0475 13.7457 12.4779 13.2572C12.9084 12.7702 13.171 12.268 13.2626 11.752H16.9202C16.7477 12.9091 16.2912 13.996 15.5478 15.0142C14.8059 16.0324 13.835 16.8506 12.6352 17.4704C11.4353 18.0902 10.1133 18.4001 8.66922 18.4001C7.02514 18.4001 5.54439 18.0139 4.22546 17.2399V17.2369Z" fill="#CCCCCC"/>
<path d="M28.1314 14.6762H21.8496L20.7169 17.9797H16.98L23.2617 0.94043H27.0185L33.3002 17.9797H29.264L28.1314 14.6762ZM27.0185 11.3728L24.9913 5.43456L22.964 11.3728H27.02H27.0185Z" fill="#CCCCCC"/>
<path d="M38.5482 0.94043V14.6137H46.6388V17.9797H34.9287V0.94043H38.5466H38.5482Z" fill="#CCCCCC"/>
<path d="M58.01 1.2323C58.9778 1.70553 59.7502 2.36499 60.3257 3.20764C60.9028 4.05182 61.2172 5.00896 61.2707 6.08212H57.5337C57.4268 5.32954 57.1154 4.74334 56.5994 4.3266C56.082 3.90833 55.3935 3.69919 54.5325 3.69919C53.6715 3.69919 53.0686 3.85643 52.6045 4.16937C52.1404 4.48231 51.9084 4.90516 51.9084 5.43487C51.9084 5.85314 52.0549 6.19509 52.3465 6.45918C52.6381 6.72479 53.0853 6.95835 53.6883 7.15986C54.2913 7.36136 55.1691 7.58882 56.3216 7.83917C58.1107 8.22996 59.393 8.87416 60.1685 9.7733C60.944 10.6724 61.3317 11.7975 61.3317 13.15C61.3317 14.2094 61.0432 15.136 60.4662 15.9314C59.8891 16.7252 59.1045 17.3358 58.1107 17.7602C57.1169 18.1845 56.0102 18.3982 54.7905 18.3982C53.4654 18.3982 52.2763 18.1571 51.2214 17.6762C50.1666 17.1953 49.3331 16.5084 48.7164 15.6169C48.0997 14.7254 47.7653 13.6797 47.7119 12.4814H51.4291C51.5344 13.3042 51.9099 13.9621 52.5526 14.4567C53.1953 14.9513 54.0272 15.1986 55.0469 15.1986C55.7888 15.1986 56.4025 15.0246 56.8864 14.6765C57.3704 14.3285 57.6115 13.8751 57.6115 13.3179C57.6115 12.8722 57.4818 12.5028 57.2238 12.2097C56.9658 11.9166 56.5537 11.6662 55.9919 11.4571C55.4286 11.2479 54.6439 11.0464 53.6364 10.851C51.8198 10.4892 50.4628 9.88321 49.5606 9.0314C48.6584 8.18111 48.208 6.98278 48.208 5.43487C48.208 4.43193 48.4966 3.56028 49.0736 2.82143C49.6506 2.08258 50.4353 1.51471 51.4291 1.11781C52.4228 0.720911 53.5357 0.522461 54.7691 0.522461C56.0026 0.522461 57.0421 0.759074 58.01 1.23383V1.2323Z" fill="#CCCCCC"/>
</svg>
